<svg width="107" height="37" viewBox="0 0 107 37" fill="none" xmlns="http://www.w3.org/2000/svg">
<path d="M22.4 20.4C22.4 22.48 21.68 24.2667 20.24 25.76C18.8267 27.2533 16.6533 28 13.72 28H0.6V24.2H3.6V5.8H0.6V2H13.56C16.0133 2 17.9333 2.56 19.32 3.68C20.7333 4.8 21.44 6.29333 21.44 8.16C21.44 9.52 21.0267 10.7067 20.2 11.72C19.3733 12.7333 18.24 13.3733 16.8 13.64V13.8C18.6667 14.0933 20.0667 14.84 21 16.04C21.9333 17.24 22.4 18.6933 22.4 20.4ZM16.68 9.28C16.68 7.92 16.28 7 15.48 6.52C14.7067 6.04 13.7067 5.8 12.48 5.8H8.04V12.92H12.2C13.72 12.92 14.84 12.5867 15.56 11.92C16.3067 11.2267 16.68 10.3467 16.68 9.28ZM17.64 20.24C17.64 17.68 16.1733 16.4 13.24 16.4H8.04V24.2H12.64C15.9733 24.2 17.64 22.88 17.64 20.24ZM48.0494 28H40.9694V25C39.796 27.24 37.8227 28.36 35.0494 28.36C33.3427 28.36 31.8627 27.8533 30.6094 26.84C29.3827 25.8 28.7694 24.16 28.7694 21.92V13.32H26.0894V10.04H33.0494V20.36C33.0494 22.0667 33.356 23.28 33.9694 24C34.5827 24.6933 35.4494 25.04 36.5694 25.04C37.9027 25.04 38.956 24.5733 39.7294 23.64C40.5294 22.7067 40.9427 21.6 40.9694 20.32V13.32H37.7694V10.04H45.2494V24.72H48.0494V28ZM72.4963 13.36H69.8963V27.32C69.8963 30.1733 69.0963 32.48 67.4963 34.24C65.9229 36 63.5629 36.88 60.4163 36.88C58.5496 36.88 56.8029 36.48 55.1763 35.68C53.5496 34.88 52.4029 33.5067 51.7363 31.56L55.0563 29.76C56.1763 32.2133 57.9896 33.44 60.4963 33.44C61.9896 33.44 63.2163 32.9067 64.1763 31.84C65.1363 30.7733 65.6163 29.2533 65.6163 27.28V24.6C65.1096 25.56 64.3763 26.3867 63.4163 27.08C62.4829 27.7467 61.1896 28.08 59.5363 28.08C57.4296 28.08 55.6029 27.3467 54.0563 25.88C52.5363 24.3867 51.7763 22.2267 51.7763 19.4C51.7763 16.84 52.4563 14.5867 53.8163 12.64C55.2029 10.6667 57.2029 9.68 59.8163 9.68C62.5363 9.68 64.4696 10.7333 65.6163 12.84V10.04H72.4963V13.36ZM65.6163 19.44V18C65.6163 16.5067 65.1896 15.32 64.3363 14.44C63.4829 13.56 62.4163 13.12 61.1363 13.12C59.6429 13.12 58.4963 13.6667 57.6963 14.76C56.8963 15.8267 56.4963 17.28 56.4963 19.12C56.4963 21.0133 56.8963 22.4133 57.6963 23.32C58.4963 24.2 59.5096 24.64 60.7363 24.64C62.2563 24.64 63.4429 24.1067 64.2963 23.04C65.1763 21.9733 65.6163 20.7733 65.6163 19.44ZM85.3991 28H75.7991V24.72H78.4791V3.76H75.6391V0.479999H82.7191V24.72H85.3991V28ZM106.252 22.52C106.092 24.0933 105.319 25.4667 103.932 26.64C102.545 27.8133 100.639 28.4 98.2119 28.4C95.5985 28.4 93.4519 27.64 91.7719 26.12C90.0919 24.5733 89.2519 22.3067 89.2519 19.32C89.2519 16.5733 90.0119 14.28 91.5319 12.44C93.0785 10.6 95.2252 9.68 97.9719 9.68C100.452 9.68 102.412 10.4267 103.852 11.92C105.319 13.3867 106.065 15.2533 106.092 17.52C106.092 18.2667 106.012 19.0667 105.852 19.92H93.7319C93.9719 23.28 95.5719 24.96 98.5319 24.96C99.9185 24.96 100.905 24.6267 101.492 23.96C102.105 23.2933 102.505 22.5867 102.692 21.84L106.252 22.52ZM101.692 17.28C101.799 16.2133 101.545 15.2133 100.932 14.28C100.345 13.32 99.3452 12.84 97.9319 12.84C96.6519 12.84 95.6785 13.2667 95.0119 14.12C94.3452 14.9733 93.9319 16.0267 93.7719 17.28H101.692Z" fill="black"/>
</svg>
